<?xml version="1.0" encoding="utf-8"?>
<!-- Generator: Adobe Illustrator 15.0.2, SVG Export Plug-In  -->
<!DOCTYPE svg PUBLIC "-//W3C//DTD SVG 1.1//EN" "http://www.w3.org/Graphics/SVG/1.1/DTD/svg11.dtd" [
	<!ENTITY ns_flows "http://ns.adobe.com/Flows/1.0/">
]>
<svg version="1.1"
	 xmlns="http://www.w3.org/2000/svg" xmlns:xlink="http://www.w3.org/1999/xlink" xmlns:a="http://ns.adobe.com/AdobeSVGViewerExtensions/3.0/"
	 x="0px" y="0px" width="135px" height="38px" viewBox="-4.817 -4.698 135 38"
	 overflow="visible" enable-background="new -4.817 -4.698 135 38" xml:space="preserve">
<defs>
</defs>
<path fill="#894B9D" d="M49.048,21.235v-6.119h-5.833v6.119H40.14V6.761h3.075v5.832h5.833V6.761h3.075v14.475H49.048z"/>
<path fill="#894B9D" d="M64.553,21.235h-9.449V6.761h9.449v2.48h-6.405v3.521h6.023v2.312h-6.023v3.681h6.405V21.235z"/>
<path fill="#894B9D" d="M73.008,6.761c3.182,0,4.952,2.163,4.952,4.889c0,2.757-1.792,4.836-4.984,4.836h-2.799v4.75h-3.065V6.761
	H73.008z M70.167,14.13h1.622c1.898,0,3.055-0.604,3.055-2.48c0-1.592-0.934-2.482-2.472-2.482h-2.205V14.13z"/>
<path fill="#2C3E50" d="M84.666,6.771c4.645,0,6.353,3.002,6.353,7.232c0,4.137-1.612,7.232-6.353,7.232h-4.454V6.771H84.666z
	 M81.792,19.794h2.821c3.34,0,4.771-2.111,4.771-5.791c0-3.573-1.357-5.801-4.771-5.801h-2.821V19.794z"/>
<path fill="#2C3E50" d="M92.112,21.235l5.196-14.465h1.549l5.196,14.465h-1.697l-1.537-4.506h-5.547l-1.537,4.506H92.112z
	 M98.03,8.722l-2.302,6.703h4.646l-2.302-6.703H98.03z"/>
<path fill="#2C3E50" d="M107.811,21.235V8.202h-4.497V6.771h10.562v1.432h-4.507v13.033H107.811z"/>
<path fill="#2C3E50" d="M113.127,21.235l5.196-14.465h1.549l5.196,14.465h-1.697l-1.537-4.506h-5.547l-1.537,4.506H113.127z
	 M119.045,8.722l-2.302,6.703h4.646l-2.302-6.703H119.045z"/>
<circle fill="#FFFFFF" cx="18.587" cy="14.558" r="2.071"/>
<path fill="#2C3E50" d="M18.588,12.042c1.386,0,2.514,1.129,2.514,2.516s-1.128,2.516-2.514,2.516c-1.387,0-2.516-1.129-2.516-2.516
	S17.201,12.042,18.588,12.042z M18.588,16.187c0.896,0,1.627-0.73,1.627-1.629c0-0.897-0.73-1.629-1.627-1.629
	c-0.898,0-1.628,0.731-1.628,1.629C16.96,15.456,17.689,16.187,18.588,16.187z"/>
<path fill="#894B9D" d="M18.588,26.255c6.459,0,11.696-5.236,11.696-11.697S25.047,2.86,18.588,2.86
	c-6.46,0-11.698,5.236-11.698,11.697S12.128,26.255,18.588,26.255z M18.588,4.741c5.422,0,9.816,4.394,9.816,9.816
	c0,5.422-4.395,9.818-9.816,9.818c-5.424,0-9.818-4.396-9.818-9.818C8.77,9.135,13.164,4.741,18.588,4.741z"/>
<path fill="#894B9D" d="M26.512,6.306v0.653c-4.188,0-7.598,3.409-7.598,7.599H18.26C18.26,10.009,21.962,6.306,26.512,6.306z"/>
<path fill="#894B9D" d="M18.291,14.017h0.654c0,0.553,3.684,1.631,10.438,1.631v0.655C25.546,16.303,18.291,15.825,18.291,14.017z"
	/>
<path fill="#2C3E50" d="M18.26,14.558h0.654c0,7.238,5.89,13.13,13.13,13.13v0.655C24.443,28.343,18.26,22.159,18.26,14.558z"/>
<path fill="#894B9D" d="M18.26,14.558h0.654c0,4.415-3.59,8.005-8.005,8.005v-0.653C14.962,21.909,18.26,18.61,18.26,14.558z"/>
<path fill="#894B9D" d="M0,10.96c9.399,0,18.914,1.236,18.914,3.598H18.26c0-1.229-6.947-2.943-18.26-2.943V10.96z"/>
<path fill="#2C3E50" d="M5.523,0C12.586,0,18.33,5.743,18.33,12.806h-0.655c0-6.7-5.45-12.15-12.151-12.15V0z"/>
</svg>
