<?xml version="1.0" encoding="utf-8"?>
<!-- Generator: Adobe Illustrator 15.0.2, SVG Export Plug-In  -->
<!DOCTYPE svg PUBLIC "-//W3C//DTD SVG 1.1//EN" "http://www.w3.org/Graphics/SVG/1.1/DTD/svg11.dtd" [
	<!ENTITY ns_flows "http://ns.adobe.com/Flows/1.0/">
]>
<svg version="1.1"
	 xmlns="http://www.w3.org/2000/svg" xmlns:xlink="http://www.w3.org/1999/xlink" xmlns:a="http://ns.adobe.com/AdobeSVGViewerExtensions/3.0/"
	 x="0px" y="0px" width="15px" height="15px" viewBox="-0.975 -0.809 15 15"
	 overflow="visible" enable-background="new -0.975 -0.809 15 15" xml:space="preserve">
<defs>
</defs>
<g transform="translate(192 96)">
	<g>
		<g>
			<path fill="#894B9D" d="M5.34,0c0.723,0,1.414,0.143,2.074,0.424c0.658,0.283,1.227,0.662,1.701,1.139
				c0.479,0.475,0.857,1.043,1.139,1.701c0.283,0.66,0.424,1.353,0.424,2.074c0,0.621-0.102,1.217-0.303,1.785
				c-0.201,0.566-0.49,1.083-0.863,1.548l3.369,3.364c0.113,0.113,0.17,0.254,0.17,0.422c0,0.17-0.057,0.312-0.168,0.424
				c-0.113,0.113-0.254,0.168-0.424,0.168c-0.168,0-0.309-0.057-0.422-0.17l-3.365-3.37c-0.465,0.374-0.98,0.663-1.547,0.864
				c-0.57,0.203-1.164,0.305-1.785,0.305c-0.725,0-1.416-0.141-2.074-0.426c-0.66-0.281-1.229-0.66-1.703-1.136
				C1.086,8.641,0.707,8.072,0.424,7.412C0.143,6.753,0,6.062,0,5.34c0-0.724,0.143-1.414,0.424-2.076
				c0.283-0.658,0.662-1.227,1.139-1.701c0.475-0.477,1.043-0.855,1.703-1.139C3.926,0.143,4.615,0,5.34,0L5.34,0z M5.34,1.186
				c-0.562,0-1.1,0.11-1.611,0.33C3.215,1.734,2.773,2.03,2.402,2.4C2.031,2.771,1.734,3.213,1.516,3.727
				C1.297,4.239,1.188,4.777,1.188,5.34s0.109,1.1,0.328,1.612c0.219,0.514,0.516,0.954,0.887,1.325s0.812,0.666,1.326,0.887
				C4.24,9.382,4.777,9.492,5.34,9.492s1.098-0.11,1.613-0.328c0.512-0.221,0.953-0.516,1.324-0.887s0.666-0.812,0.887-1.325
				c0.219-0.513,0.33-1.05,0.33-1.612s-0.111-1.101-0.33-1.613C8.943,3.213,8.648,2.771,8.277,2.4
				C7.906,2.03,7.465,1.734,6.953,1.516C6.438,1.296,5.902,1.186,5.34,1.186z"/>
		</g>
	</g>
</g>
</svg>
